<?xml version="1.0" encoding="UTF-8" standalone="no"?>
<svg
   xmlns:dc="http://purl.org/dc/elements/1.1/"
   xmlns:cc="http://creativecommons.org/ns#"
   xmlns:rdf="http://www.w3.org/1999/02/22-rdf-syntax-ns#"
   xmlns:svg="http://www.w3.org/2000/svg"
   xmlns="http://www.w3.org/2000/svg"
   xmlns:sodipodi="http://sodipodi.sourceforge.net/DTD/sodipodi-0.dtd"
   xmlns:inkscape="http://www.inkscape.org/namespaces/inkscape"
   viewBox="0 0 568.81568 195.05224">

  <g
     style="fill:#ffffff">
    <path
       d="M.65 2.72h29.1v119.868h13.512v14.897H.65v-14.897h12.992V17.616H.65V2.72zm57.336 89.9q.087-10.652 3.378-19.4 3.378-8.747 9.354-14.983 5.976-6.323 14.204-9.7 8.228-3.38 18.102-3.38 9.96 0 18.188 3.38 8.315 3.377 14.204 9.613 5.89 6.15 9.18 14.897 3.292 8.748 3.292 19.4 0 10.48-3.29 19.315-3.292 8.748-9.182 15.07-5.89 6.323-14.204 9.874-8.228 3.464-18.188 3.464-10.134 0-18.362-3.464-8.228-3.465-14.117-9.7-5.89-6.323-9.18-15.07-3.292-8.748-3.38-19.315zm17.063 0q0 7.71 2.16 13.945 2.25 6.236 6.06 10.653 3.89 4.33 8.92 6.756 5.11 2.34 10.82 2.34 5.97 0 11.08-2.34 5.19-2.338 9-6.67 3.81-4.416 5.97-10.652 2.16-6.236 2.16-14.03 0-8.142-2.17-14.465T123.1 67.59q-3.724-4.24-8.92-6.41-5.197-2.16-11.173-2.16-5.718 0-10.828 2.166-5.03 2.167-8.92 6.41-3.81 4.244-6.07 10.567-2.17 6.32-2.17 14.46zm154.59-20.96q-3.64-6.495-9.27-9.526-5.54-3.03-12.91-3.03-5.63 0-10.57 2.337-4.94 2.34-8.66 6.67-3.64 4.33-5.8 10.57-2.08 6.15-2.08 13.77 0 7.54 2.08 13.6 2.16 6.06 5.89 10.39 3.72 4.25 8.57 6.58 4.93 2.26 10.56 2.26 8.31 0 14.46-3.98 6.15-4.07 9.78-11.86l13.34 6.59q-2.6 5.55-6.41 9.96-3.81 4.42-8.66 7.54-4.77 3.12-10.57 4.77-5.7 1.72-12.11 1.72-9.36 0-17.32-3.46-7.88-3.55-13.69-9.87-5.72-6.33-8.92-15.07-3.21-8.75-3.21-19.14t3.38-19.14q3.38-8.75 9.27-14.99 5.89-6.32 13.77-9.87 7.88-3.55 16.89-3.55 8.49 0 16.02 2.94 7.62 2.94 13.332 8.92h9.094v14.9h-16.28zm84.62 57.51q-5.11 4.764-11.35 7.796-6.15 3.03-14.03 3.03-6.58 0-12.13-2.078-5.46-2.078-9.44-5.63-3.99-3.637-6.24-8.4-2.17-4.764-2.17-10.134 0-5.716 1.64-10.133 1.73-4.41 4.5-7.62 2.86-3.29 6.58-5.45 3.81-2.25 7.88-3.55 4.16-1.38 8.4-1.9 4.33-.6 8.23-.6 6.23 0 10.48.44 4.24.35 7.71 1.04l.08-7.36q0-4.76-1.39-8.22-1.38-3.55-3.9-5.8-2.51-2.34-6.06-3.46Q299.6 60 295.27 60q-4.07 0-7.796.61-3.725.52-7.016 1.47-3.206.87-5.977 2.08-2.68 1.13-4.59 2.43l-5.28-11.17q3.21-2.08 7.02-3.81 3.81-1.82 7.97-3.03 4.25-1.3 8.58-1.99 4.42-.78 8.66-.78 7.8 0 14.03 1.91 6.24 1.82 10.57 5.72 4.33 3.898 6.67 9.96 2.34 5.977 2.34 14.378l-.09 44.865h9.96v14.89h-26.07v-8.32zm-21.83-2.684q3.2 0 6.41-.78 3.2-.78 6.06-2.078 2.86-1.386 5.28-3.118 2.42-1.82 4.07-3.725l.09-20.267h-18.71q-4.68 0-8.58 1.04-3.81 1.04-6.67 3.03-2.77 1.993-4.33 4.938-1.56 2.945-1.56 6.756 0 3.55 1.3 6.236 1.3 2.598 3.64 4.417 2.42 1.732 5.71 2.685 3.29.866 7.27.866zm90.68-78.73h21.04v13.08h-21.22l-.26 51.792q0 5.283 1.21 8.575 1.21 3.29 3.9 4.59 2.68 1.212 6.06 1.212 3.64 0 6.41-.606 2.77-.7 6.06-2.26l3.72 10.82q-4.16 2.16-8.75 3.37-4.59 1.3-10.83 1.3-5.89 0-10.31-1.48-4.33-1.39-7.36-4.77-2.95-3.38-4.42-9.01-1.48-5.72-1.48-14.21l.26-49.37h-14.29V47.75h14.46V26.27l15.76-7.447v28.92zm39.49 0h29.27v74.83h13.52v14.9h-42.61v-14.898h12.82V62.654h-12.99zm56.3 44.864q.08-10.652 3.38-19.4 3.38-8.747 9.35-14.983 5.97-6.323 14.2-9.7 8.22-3.38 18.1-3.38 9.96 0 18.19 3.38 8.31 3.377 14.2 9.613 5.89 6.15 9.18 14.897 3.29 8.748 3.29 19.4 0 10.48-3.3 19.315-3.29 8.748-9.18 15.07-5.89 6.323-14.2 9.874-8.23 3.464-18.19 3.464-10.14 0-18.36-3.464-8.23-3.465-14.12-9.7-5.89-6.323-9.18-15.07-3.29-8.748-3.38-19.315zm17.06 0q0 7.71 2.16 13.945 2.25 6.236 6.06 10.653 3.9 4.33 8.92 6.756 5.11 2.34 10.82 2.34 5.98 0 11.09-2.34 5.2-2.338 9.01-6.67 3.81-4.416 5.97-10.652 2.16-6.236 2.16-14.03 0-8.142-2.17-14.465T544 67.59q-3.724-4.24-8.92-6.41-5.2-2.16-11.174-2.16-5.714 0-10.824 2.166-5.026 2.167-8.92 6.41-3.815 4.244-6.067 10.567-2.16 6.323-2.16 14.464z"
       style="fill:#ffffff" />
    <path
       d="M0 186.413h16.038v-2.934H3.43v-9.84h10.293v-2.94H3.43v-8.52h12.195v-2.89H0v27.11zm21.467 0h3.39v-14.55c2.025-2.025 3.43-3.1 5.497-3.1 2.645 0 3.803 1.612 3.803 5.374v12.276h3.39v-12.73c0-5.126-1.902-7.854-6.118-7.854-2.77 0-4.84 1.48-6.74 3.38h-.13l-.29-2.9h-2.81v20.09zm22.605 0h3.39v-14.55c2.025-2.025 3.43-3.1 5.497-3.1 2.64 0 3.8 1.612 3.8 5.374v12.276h3.39v-12.73c0-5.126-1.9-7.854-6.12-7.854-2.77 0-4.8 1.48-6.7 3.3l.12-4.13v-8.02h-3.39v29.43zm21.532-5.208c0 3.596 2.522 5.704 5.91 5.704 2.48 0 4.713-1.33 6.656-2.9h.083l.29 2.39h2.81v-12.31c0-5-2.067-8.27-6.986-8.27-3.224 0-6.035 1.4-7.895 2.6l1.364 2.35c1.57-1.08 3.637-2.15 5.994-2.15 3.265 0 4.133 2.48 4.133 5.04-8.556.95-12.36 3.14-12.36 7.52zm3.348-.248c0-2.563 2.274-4.216 9.01-5.043v5.58c-1.942 1.736-3.554 2.687-5.496 2.687-1.984 0-3.514-.95-3.514-3.22zm18.796 5.456h3.39v-14.55c2.025-2.025 3.43-3.1 5.497-3.1 2.645 0 3.803 1.612 3.803 5.374v12.276h3.39v-12.73c0-5.126-1.902-7.854-6.118-7.854-2.77 0-4.837 1.48-6.738 3.38h-.124l-.29-2.9h-2.81v20.09zm21.117-10.003c0 6.655 4.092 10.5 9.424 10.5 2.39 0 4.71-.993 6.53-2.605l-1.53-2.232c-1.2 1.075-2.81 2.026-4.72 2.026-3.68 0-6.2-3.11-6.2-7.69 0-4.63 2.64-7.77 6.28-7.77 1.61 0 2.85.74 4.05 1.77l1.69-2.19c-1.37-1.28-3.23-2.4-5.87-2.4-5.17 0-9.67 3.84-9.67 10.58zm17.922 0c0 6.572 4.258 10.5 9.63 10.5 2.73 0 4.88-.95 6.615-2.067l-1.2-2.233c-1.487.95-3.1 1.57-5 1.57-3.844 0-6.45-2.727-6.697-7.067h13.558c.083-.496.124-1.157.124-1.86 0-5.746-2.893-9.424-8.02-9.424-4.587 0-9.01 4-9.01 10.58zm3.307-1.53c.413-4.05 2.976-6.365 5.787-6.365 3.15 0 4.96 2.274 4.96 6.366H130.1zm25.64 17.072l-.663 2.687c.67.24 1.45.41 2.36.41 4.05 0 6.12-3.02 7.53-6.99l7.57-21.74h-3.3l-3.59 11.12c-.54 1.77-1.11 3.84-1.69 5.66h-.16c-.62-1.86-1.32-3.93-1.94-5.66l-4.09-11.12h-3.51l8.06 20.13-.45 1.49c-.83 2.48-2.28 4.3-4.55 4.3-.5 0-1.12-.17-1.53-.29zm19.008-15.542c0 6.655 4.382 10.5 9.3 10.5 4.92 0 9.3-3.845 9.3-10.5 0-6.737-4.38-10.58-9.3-10.58-4.918 0-9.3 3.843-9.3 10.58zm3.514 0c0-4.63 2.356-7.77 5.786-7.77 3.473 0 5.787 3.14 5.787 7.77 0 4.588-2.32 7.69-5.79 7.69-3.43 0-5.79-3.102-5.79-7.69zm20.128 2.646c0 5.125 1.902 7.853 6.16 7.853 2.77 0 4.753-1.45 6.613-3.64h.124l.29 3.14h2.81v-20.09h-3.39v14.26c-1.9 2.35-3.34 3.39-5.41 3.39-2.64 0-3.76-1.62-3.76-5.38v-12.27h-3.43v12.73zm22.814 7.357h3.39v-12.896c1.363-3.39 3.39-4.63 5.084-4.63.826 0 1.28.124 1.942.33l.662-2.975c-.662-.29-1.282-.413-2.15-.413-2.273 0-4.34 1.61-5.704 4.13h-.124l-.29-3.64h-2.81v20.09zm23.016 0h3.266v-14.178c0-2.852-.248-5.745-.455-8.473h.165l2.935 5.58 9.838 17.07h3.555V159.3h-3.266v14.012c0 2.852.248 5.91.413 8.64h-.165l-2.935-5.622-9.796-17.03h-3.56v27.115zm24.862 0h18.684v-2.934h-14.426l14.302-22.16v-2.03h-17.278v2.89h12.98l-14.262 22.15v2.06zm35.434-1.818c1.86 1.446 3.72 2.314 5.58 2.314 4.588 0 8.68-4.01 8.68-10.83 0-6.25-2.77-10.25-7.936-10.25-2.356 0-4.588 1.28-6.407 2.81h-.123l-.29-2.32h-2.81v28.56h3.39v-6.78l-.084-3.51zm.083-2.646v-10.54c1.984-1.78 3.68-2.73 5.373-2.73 3.803 0 5.29 2.97 5.29 7.4 0 4.96-2.438 7.97-5.744 7.97-1.323 0-3.1-.58-4.92-2.11zm19.537 4.46h3.39v-12.9c1.365-3.39 3.39-4.63 5.085-4.63.827 0 1.28.12 1.943.33l.66-2.98c-.66-.29-1.28-.42-2.15-.42-2.272 0-4.34 1.61-5.703 4.13h-.124l-.28-3.64h-2.81v20.09zm12.48-10.01c0 6.65 4.38 10.5 9.3 10.5 4.92 0 9.3-3.85 9.3-10.5 0-6.74-4.38-10.58-9.3-10.58-4.92 0-9.3 3.84-9.3 10.58zm3.513 0c0-4.63 2.356-7.77 5.787-7.77 3.472 0 5.787 3.14 5.787 7.77 0 4.58-2.315 7.69-5.787 7.69-3.43 0-5.787-3.11-5.787-7.69zm23.725 8.18c1.86 1.44 3.72 2.31 5.58 2.31 4.588 0 8.68-4.01 8.68-10.83 0-6.25-2.77-10.25-7.936-10.25-2.356 0-4.588 1.28-6.407 2.81h-.123l-.29-2.32h-2.81v28.56h3.39v-6.78l-.084-3.51zm.083-2.65V171.4c1.99-1.78 3.68-2.73 5.38-2.73 3.81 0 5.29 2.977 5.29 7.4 0 4.96-2.44 7.977-5.74 7.977-1.32 0-3.1-.576-4.92-2.106zm18.05-5.54c0 6.57 4.26 10.5 9.64 10.5 2.73 0 4.88-.95 6.62-2.07l-1.2-2.24c-1.48.95-3.1 1.57-5 1.57-3.84 0-6.45-2.73-6.69-7.07h13.55c.08-.5.12-1.16.12-1.86 0-5.75-2.89-9.43-8.01-9.43-4.59 0-9.01 4-9.01 10.58zm3.31-1.53c.42-4.05 2.98-6.37 5.79-6.37 3.14 0 4.96 2.27 4.96 6.36h-10.75zm18.69 11.53h3.39V173.5c1.37-3.39 3.39-4.63 5.09-4.63.83 0 1.28.125 1.94.33l.67-2.974c-.66-.29-1.28-.414-2.15-.414-2.27 0-4.34 1.61-5.7 4.13h-.12l-.29-3.636H404v20.09zm14.95-6.2c0 3.97 1.45 6.69 5.75 6.69 1.24 0 2.61-.38 3.72-.75l-.66-2.56c-.66.25-1.57.54-2.27.54-2.31 0-3.1-1.41-3.1-3.89v-11.16h5.42v-2.77h-5.41v-5.62h-2.85l-.41 5.62-3.14.2v2.56h2.98v11.12zm12.03 11.74l-.66 2.68c.66.24 1.45.41 2.36.41 4.05 0 6.12-3.02 7.53-6.99l7.57-21.75h-3.3l-3.59 11.12c-.53 1.77-1.11 3.84-1.69 5.66H439c-.62-1.86-1.324-3.93-1.944-5.66l-4.094-11.12h-3.513l8.06 20.13-.46 1.49c-.83 2.48-2.28 4.29-4.55 4.29-.5 0-1.12-.16-1.53-.29zm26.74-7.82c1.91 1.57 4.63 2.77 7.49 2.77 4.76 0 7.36-2.73 7.36-5.99 0-3.8-3.22-5-6.12-6.08-2.27-.87-4.46-1.57-4.46-3.48 0-1.53 1.16-2.89 3.68-2.89 1.78 0 3.23.74 4.59 1.77l1.61-2.15c-1.53-1.24-3.72-2.28-6.24-2.28-4.34 0-6.9 2.48-6.9 5.702 0 3.39 3.15 4.75 6 5.79 2.19.826 4.59 1.736 4.59 3.8 0 1.74-1.32 3.144-3.97 3.144-2.4 0-4.17-.993-5.91-2.4l-1.69 2.275zm18.11-7.73c0 6.57 4.26 10.5 9.63 10.5 2.73 0 4.88-.95 6.62-2.07l-1.19-2.24c-1.49.95-3.1 1.57-5 1.57-3.84 0-6.45-2.73-6.69-7.07h13.56c.08-.5.12-1.16.12-1.86 0-5.75-2.89-9.43-8.02-9.43-4.59 0-9.01 4.01-9.01 10.58zm3.31-1.53c.41-4.05 2.98-6.37 5.79-6.37 3.14 0 4.96 2.27 4.96 6.36H479.1zm17.13 6.32c0 3.59 2.52 5.7 5.91 5.7 2.48 0 4.71-1.33 6.66-2.9h.08l.29 2.39H512v-12.31c0-5-2.067-8.27-6.986-8.27-3.22 0-6.03 1.402-7.89 2.6l1.36 2.36c1.57-1.075 3.64-2.15 5.997-2.15 3.27 0 4.14 2.48 4.14 5.043-8.55.95-12.36 3.14-12.36 7.522zm3.35-.25c0-2.56 2.28-4.22 9.01-5.04v5.58c-1.94 1.73-3.55 2.68-5.49 2.68-1.98 0-3.51-.95-3.51-3.22zm18.8 5.45h3.39V173.5c1.37-3.39 3.39-4.63 5.09-4.63.83 0 1.28.123 1.95.33l.66-2.976c-.66-.29-1.28-.41-2.15-.41-2.27 0-4.34 1.61-5.7 4.13h-.12l-.29-3.63h-2.81v20.09zm12.48-10c0 6.65 4.1 10.5 9.43 10.5 2.4 0 4.71-1 6.53-2.61l-1.53-2.23c-1.2 1.07-2.81 2.03-4.71 2.03-3.68 0-6.2-3.11-6.2-7.69 0-4.63 2.65-7.77 6.28-7.77 1.62 0 2.86.74 4.05 1.77l1.7-2.19c-1.36-1.28-3.22-2.4-5.87-2.4-5.16 0-9.67 3.84-9.67 10.58zm20.3 10h3.39v-14.55c2.03-2.03 3.43-3.1 5.5-3.1 2.65 0 3.8 1.61 3.8 5.37v12.28h3.39v-12.73c0-5.13-1.9-7.85-6.12-7.85-2.77 0-4.79 1.48-6.69 3.3l.13-4.13v-8.02h-3.39v29.43z"
       style="fill:#ffffff" />
  </g>
  <path
     d="M450.508.005c-5.28-.137-10.468 2.547-13.295 7.444-1.266 2.8-2.018 5.38-1.974 8.2v25l22.19-12.82c2.25-1.36 4.4-3.52 5.57-5.5 4.11-7.12 1.67-16.23-5.45-20.34C455.32.71 452.9.06 450.5 0zm-.68 9.096a5.808 5.808 0 0 1 3.18.78 5.808 5.808 0 0 1 2.125 7.94 5.808 5.808 0 0 1-7.933 2.13 5.808 5.808 0 0 1-2.127-7.94 5.808 5.808 0 0 1 4.757-2.9z"
	 style="fill:#ffffff" />
</svg>
